<svg width="22" height="22" viewBox="0 0 22 22" fill="none" xmlns="http://www.w3.org/2000/svg">
<path d="M10.5882 11.9926C10.4044 11.9926 10.227 11.9178 10.0977 11.7842C9.94752 11.6287 9.87912 11.4123 9.91492 11.198L10.2356 9.26781C10.2591 9.1278 10.3259 8.99795 10.4263 8.89748L19.1245 0.199871C19.3906 -0.0667863 19.8229 -0.0667863 20.089 0.199871L21.7536 1.86501C21.8819 1.99272 21.9535 2.16586 21.9535 2.34755C21.9535 2.52871 21.8819 2.70185 21.7536 2.8301L13.0566 11.5272C12.9513 11.633 12.8123 11.7014 12.6654 11.7212L10.6796 11.9867C10.6481 11.9905 10.6182 11.9926 10.5882 11.9926ZM11.5459 9.70761L11.4123 10.5119L12.2544 10.3991L20.3071 2.34755L19.6065 1.64698L11.5459 9.70761Z" fill="#FF572F"/>
<path d="M19.1523 19.9528H2.09316V2.89369H13.8079L15.8551 0.846466H1.06982C0.79782 0.846466 0.53811 0.954411 0.346267 1.14679C0.154958 1.33863 0.0464783 1.59941 0.0464783 1.87034V20.9761C0.0464783 21.2588 0.160836 21.5148 0.346267 21.6997C0.531698 21.8851 0.787667 22 1.06982 22H20.1761C20.4476 22 20.7084 21.8921 20.8997 21.6997C21.091 21.5073 21.2 21.2465 21.2 20.9761V6.23411L19.1528 8.2808L19.1523 19.9528Z" fill="#FF572F"/>
</svg>
