<svg width="40" height="40" viewBox="0 0 40 40" fill="none" xmlns="http://www.w3.org/2000/svg">
<path d="M36.991 15.7547C34.9844 13.8346 32.4549 12.5508 29.7205 12.0649C28.8947 10.5886 27.7867 9.2891 26.4593 8.24056C23.3296 5.83501 19.4797 4.55565 15.5327 4.60955C11.5856 4.55565 7.73576 5.83501 4.60601 8.24056C1.75667 10.531 0 13.6829 0 17.171C0.00535827 18.9351 0.454822 20.6694 1.307 22.2141C2.15623 23.746 3.30878 25.0887 4.69426 26.1603L3.90838 31.3547C3.85806 31.6851 4.08521 31.9937 4.41563 32.044C4.55253 32.0648 4.69237 32.0381 4.81193 31.9682L10.0357 28.9088C10.8738 29.1645 11.729 29.3597 12.5951 29.4929C13.5685 29.6424 14.552 29.7169 15.5369 29.7157C15.8731 29.7157 16.2064 29.7073 16.5371 29.6904C17.8253 30.8687 19.3295 31.7864 20.9666 32.3927C22.7781 33.0709 24.6974 33.4155 26.6316 33.4097C27.4758 33.4097 28.3189 33.3451 29.1532 33.2164C29.8853 33.1036 30.6085 32.9393 31.3175 32.7247L35.7512 35.3093C36.0398 35.4779 36.4104 35.3806 36.579 35.092C36.6489 34.9724 36.6756 34.8326 36.6548 34.6957L35.995 30.3166C37.1706 29.4007 38.1497 28.2573 38.8737 26.9546C39.6085 25.6208 39.9959 24.1235 40 22.6007C39.9632 20.0058 38.8778 17.5364 36.991 15.7547ZM15.5285 28.5011C14.6083 28.5014 13.6894 28.4311 12.78 28.291C11.8867 28.1548 11.0057 27.9483 10.145 27.6732C9.98203 27.6218 9.805 27.6416 9.65749 27.7279L5.28682 30.2662L5.93402 25.988C5.97363 25.7649 5.88622 25.5383 5.70708 25.3996C4.33757 24.394 3.20204 23.1036 2.37865 21.6173C1.62618 20.2499 1.2302 18.715 1.22715 17.1542C1.22715 14.0485 2.80731 11.2328 5.36667 9.16933C8.28315 6.93567 11.8679 5.75107 15.5411 5.80728C19.2143 5.75075 22.7991 6.93535 25.7155 9.16933C27.0183 10.2116 29.855 12.9516 29.855 16.9945C29.855 20.6087 27.8924 23.2269 26.1231 24.765C24.322 26.2764 22.2009 27.3584 19.9202 27.9296C18.4804 28.2736 17.0084 28.4652 15.5285 28.5011ZM37.8021 26.362V26.3662C37.1026 27.6212 36.1408 28.7106 34.9821 29.5602C34.7951 29.6938 34.6993 29.9214 34.7342 30.1485L35.2595 33.6283L31.6915 31.527C31.544 31.4408 31.367 31.421 31.204 31.4723C30.4724 31.7063 29.7234 31.8819 28.9641 31.9977C28.1908 32.1161 27.4096 32.175 26.6274 32.1742C24.84 32.1817 23.0659 31.8656 21.391 31.2412C20.2593 30.819 19.1937 30.2374 18.2265 29.5139C20.004 29.2203 21.7386 28.7094 23.3915 27.9926C24.6685 27.4083 25.8534 26.6411 26.909 25.7148C28.3379 24.4541 31.0611 21.5669 31.0611 17.0155C31.0066 15.8013 30.773 14.6019 30.3677 13.4559C32.5358 13.982 34.5255 15.074 36.1336 16.6205C37.7847 18.1744 38.7381 20.3294 38.7771 22.5965C38.7723 23.9135 38.4371 25.2082 37.8021 26.362Z" fill="white"/>
<path d="M8.61523 18.6503C9.20709 18.6503 9.68689 18.1705 9.68689 17.5787C9.68689 16.9868 9.20709 16.507 8.61523 16.507C8.02337 16.507 7.54358 16.9868 7.54358 17.5787C7.54358 18.1705 8.02337 18.6503 8.61523 18.6503Z" fill="white"/>
<path d="M22.4417 18.6503C23.0336 18.6503 23.5134 18.1705 23.5134 17.5787C23.5134 16.9868 23.0336 16.507 22.4417 16.507C21.8499 16.507 21.3701 16.9868 21.3701 17.5787C21.3701 18.1705 21.8499 18.6503 22.4417 18.6503Z" fill="white"/>
<path d="M15.5285 18.6503C16.1204 18.6503 16.6002 18.1705 16.6002 17.5787C16.6002 16.9868 16.1204 16.507 15.5285 16.507C14.9366 16.507 14.4568 16.9868 14.4568 17.5787C14.4568 18.1705 14.9366 18.6503 15.5285 18.6503Z" fill="white"/>
</svg>
