<svg width="52" height="30" viewBox="0 0 52 30" fill="none" xmlns="http://www.w3.org/2000/svg">
<path d="M44.075 13.5141H37.4748C36.1107 13.5132 34.7698 13.8662 33.5829 14.5386C32.5727 15.1116 31.6988 15.897 31.0217 16.8407C30.5707 16.762 30.1137 16.7227 29.6558 16.723H23.0496C22.5917 16.7225 22.1347 16.762 21.6837 16.8407C21.0067 15.8969 20.1328 15.1115 19.1225 14.5386C17.9356 13.8662 16.5947 13.5132 15.2306 13.5141H8.6304C4.24457 13.5238 0.691569 17.0768 0.681854 21.4627V25.9433C0.685093 26.4125 1.06633 26.7911 1.53559 26.7911H15.0775V29.1462C15.0775 29.6177 15.4598 30 15.9313 30H36.7506C37.222 30 37.6043 29.6177 37.6043 29.1462V26.7911H51.1463C51.6177 26.7911 52 26.4089 52 25.9374V21.4627C51.9903 17.0859 48.4516 13.5368 44.075 13.5141ZM15.1659 23.9061V24.0886C15.1659 24.171 15.1659 24.2476 15.1659 24.33V24.6715V25.0837H2.38932V21.4627C2.39903 18.0198 5.1875 15.2313 8.6304 15.2216H15.2306C16.2994 15.2204 17.3502 15.4962 18.2805 16.0223C18.9042 16.375 19.4637 16.831 19.935 17.3706C17.2783 18.5237 15.4536 21.0243 15.1659 23.9061ZM35.8792 24.6715V28.2984H16.8086V24.6067C16.8086 24.5401 16.8086 24.4753 16.8086 24.4124C16.8086 24.3104 16.8086 24.2083 16.8086 24.1063V23.9532C16.8086 23.8943 16.8086 23.8354 16.8086 23.7766V23.5882V23.5293V23.4645V23.335L16.8439 23.1937L16.9028 22.9817L16.944 22.8404C17.7898 20.277 20.1796 18.5414 22.8789 18.5305L23.0496 18.4363H29.6558C32.7906 18.4478 35.4344 20.7745 35.8438 23.8825C35.8438 24.0121 35.8439 24.1416 35.8792 24.2711C35.8792 24.4046 35.8792 24.538 35.8792 24.6715ZM50.3161 25.0895H37.5984V24.5773C37.5984 24.5125 37.5984 24.4478 37.5984 24.383C37.5984 24.3163 37.5984 24.2495 37.5984 24.1828C37.5984 24.0886 37.5984 23.9885 37.5984 23.8943V23.806V23.7059V23.5234V23.4939V23.4233V23.3585V23.3173V23.2408V23.1583V23.1171V23.0641V23.0111V22.9582V22.8286V22.7697V22.6932V22.6167L37.5572 22.4695V22.4106V22.3576V22.3164V22.2575V22.181L37.4748 21.9513C36.7076 19.9119 35.1429 18.2729 33.1413 17.4118C33.4955 16.8875 33.9262 16.4191 34.419 16.0223C35.3493 15.4962 36.4001 15.2204 37.4689 15.2216H44.075C47.5178 15.2313 50.3064 18.0198 50.3161 21.4627V25.0895Z" fill="black" fill-opacity="0.35"/>
<path d="M16.1785 1.81505C15.0535 0.683413 13.5233 0.0475309 11.9275 0.0487085C8.60756 0.0457646 5.91374 2.73472 5.9108 6.05485C5.90786 9.37484 8.59682 12.0687 11.9169 12.0716C15.2371 12.0745 17.9308 9.38558 17.9337 6.06545C17.935 4.47207 17.3039 2.9433 16.1785 1.81505ZM14.9715 9.09826C13.291 10.7794 10.566 10.78 8.88473 9.09943C7.20361 7.41891 7.20303 4.69389 8.88355 3.01263C10.5641 1.33151 13.2891 1.33092 14.9704 3.01145C15.7776 3.81837 16.2312 4.91291 16.2315 6.05426C16.2332 7.1962 15.7798 8.29163 14.9715 9.09826Z" fill="black" fill-opacity="0.35"/>
<path d="M40.7827 0.0428186C37.4627 0.0398747 34.7689 2.72884 34.7659 6.04897C34.7645 7.64236 35.3958 9.17128 36.5211 10.2994C37.6461 11.431 39.1764 12.0669 40.7721 12.0657C44.0921 12.0687 46.7859 9.37971 46.7889 6.05957C46.7918 2.73943 44.1027 0.0457625 40.7827 0.0428186ZM43.8218 9.09577C42.1413 10.7769 39.4163 10.7775 37.735 9.09694C36.9278 8.29002 36.4741 7.19548 36.4738 6.05412C36.4722 4.91218 36.9256 3.81676 37.7338 3.01013C39.4144 1.32901 42.1394 1.32842 43.8207 3.00895C45.5018 4.68948 45.5024 7.41465 43.8218 9.09577Z" fill="black" fill-opacity="0.35"/>
<path d="M30.5949 5.00331C29.4685 3.88079 27.9429 3.25094 26.3527 3.25168C24.757 3.2505 23.2267 3.88639 22.1017 5.01803C19.7604 7.36741 19.7671 11.1699 22.1164 13.5112C24.4658 15.8525 28.2683 15.8459 30.6096 13.4965C32.9509 11.1471 32.9443 7.3446 30.5949 5.00331ZM26.3515 13.5718C23.9745 13.5711 22.0481 11.6436 22.0487 9.26668C22.0493 6.88977 23.977 4.96327 26.3539 4.96386C27.4952 4.96415 28.5898 5.41781 29.3967 6.22503C30.205 7.03166 30.6583 8.12709 30.6567 9.26903C30.656 11.6461 28.7284 13.5724 26.3515 13.5718Z" fill="black" fill-opacity="0.35"/>
</svg>
