<svg width="218" height="60" viewBox="0 0 218 60" fill="none" xmlns="http://www.w3.org/2000/svg">
<path d="M95.1875 39H92.7373L83.4316 24.7559V39H80.9814V20.5156H83.4316L92.7627 34.8232V20.5156H95.1875V39ZM104.849 39.2539C102.987 39.2539 101.472 38.6445 100.304 37.4258C99.1357 36.1986 98.5518 34.5609 98.5518 32.5127V32.0811C98.5518 30.7184 98.8099 29.5039 99.3262 28.4375C99.8509 27.3626 100.579 26.5247 101.51 25.9238C102.449 25.3145 103.465 25.0098 104.557 25.0098C106.342 25.0098 107.73 25.598 108.721 26.7744C109.711 27.9508 110.206 29.6351 110.206 31.8271V32.8047H100.9C100.934 34.1589 101.328 35.2549 102.081 36.0928C102.843 36.9222 103.808 37.3369 104.976 37.3369C105.805 37.3369 106.507 37.1676 107.083 36.8291C107.659 36.4906 108.162 36.042 108.594 35.4834L110.028 36.6006C108.877 38.3695 107.151 39.2539 104.849 39.2539ZM104.557 26.9395C103.609 26.9395 102.813 27.2865 102.17 27.9805C101.527 28.666 101.129 29.6309 100.977 30.875H107.857V30.6973C107.79 29.5039 107.468 28.5814 106.893 27.9297C106.317 27.2695 105.538 26.9395 104.557 26.9395ZM116.77 32.6396L115.297 34.1758V39H112.948V19.5H115.297V31.2939L116.554 29.7832L120.832 25.2637H123.688L118.344 31.002L124.311 39H121.556L116.77 32.6396ZM125.491 32.0049C125.491 30.6592 125.754 29.4489 126.278 28.374C126.812 27.2992 127.548 26.4697 128.487 25.8857C129.435 25.3018 130.514 25.0098 131.725 25.0098C133.595 25.0098 135.106 25.6572 136.257 26.9521C137.416 28.2471 137.996 29.9694 137.996 32.1191V32.2842C137.996 33.6214 137.738 34.8232 137.222 35.8896C136.714 36.9476 135.982 37.7728 135.025 38.3652C134.077 38.9577 132.986 39.2539 131.75 39.2539C129.888 39.2539 128.377 38.6064 127.218 37.3115C126.067 36.0166 125.491 34.3027 125.491 32.1699V32.0049ZM127.853 32.2842C127.853 33.8076 128.204 35.0306 128.906 35.9531C129.617 36.8757 130.565 37.3369 131.75 37.3369C132.943 37.3369 133.891 36.8714 134.594 35.9404C135.296 35.001 135.647 33.6891 135.647 32.0049C135.647 30.4984 135.288 29.2796 134.568 28.3486C133.857 27.4092 132.91 26.9395 131.725 26.9395C130.565 26.9395 129.63 27.4007 128.919 28.3232C128.208 29.2458 127.853 30.5661 127.853 32.2842Z" fill="black"/>
<path fill-rule="evenodd" clip-rule="evenodd" d="M69.5857 15.3407C69.2555 15.0109 68.7603 14.91 68.3274 15.0843L40.8536 26.0832C40.4314 26.2514 40.1455 26.6497 40.1213 27.1035C40.0972 27.5573 40.339 27.9838 40.7409 28.1959L51.2077 33.7226L56.7343 44.1854C56.9358 44.5672 57.3318 44.8064 57.7635 44.8068H57.8257C58.2803 44.7827 58.6793 44.496 58.8471 44.0728L69.8459 16.599C70.0192 16.1653 69.9168 15.67 69.5857 15.3407ZM44.0577 27.3104L63.9232 19.3565L51.8563 31.4272L44.0577 27.3104ZM53.4992 33.074L57.6199 40.8803L65.5699 21.0071L53.4992 33.074Z" fill="black"/>
<path d="M48.4813 34.7984L41.1216 42.1581C40.8099 42.4486 40.6816 42.886 40.787 43.2988C40.8924 43.7117 41.2148 44.034 41.6276 44.1394C42.0404 44.2449 42.4779 44.1165 42.7683 43.8048L50.1281 36.449C50.5558 35.9899 50.5432 35.2745 50.0995 34.8308C49.6558 34.3871 48.9404 34.3745 48.4813 34.8022V34.7984Z" fill="black"/>
<path d="M47.4716 44.6593C47.9265 45.1136 48.6634 45.1136 49.1183 44.6593L52.672 41.1872C52.9861 40.9001 53.1187 40.4647 53.018 40.0513C52.9174 39.6379 52.5993 39.3122 52.1884 39.2018C51.7774 39.0914 51.339 39.2138 51.0446 39.521L47.491 42.9931C47.2642 43.2097 47.1343 43.5085 47.1307 43.8221C47.127 44.1357 47.2499 44.4374 47.4716 44.6593Z" fill="black"/>
<path d="M41.1643 37.8704C41.4689 37.8712 41.7616 37.7527 41.9799 37.5403L45.5335 34.0682C45.9683 33.6144 45.9648 32.8977 45.5257 32.4481C45.0866 31.9986 44.3702 31.9782 43.9062 32.4021L40.3526 35.8742C40.0124 36.2052 39.9071 36.7096 40.0863 37.1491C40.2655 37.5887 40.6935 37.8755 41.1682 37.8743L41.1643 37.8704Z" fill="black"/>
</svg>
