<svg width="58" height="21" viewBox="0 0 58 21" fill="none" xmlns="http://www.w3.org/2000/svg">
<path d="M15.1875 20H12.7373L3.43164 5.75586V20H0.981445V1.51562H3.43164L12.7627 15.8232V1.51562H15.1875V20ZM24.8486 20.2539C22.9867 20.2539 21.4717 19.6445 20.3037 18.4258C19.1357 17.1986 18.5518 15.5609 18.5518 13.5127V13.0811C18.5518 11.7184 18.8099 10.5039 19.3262 9.4375C19.8509 8.36263 20.5788 7.52474 21.5098 6.92383C22.4492 6.31445 23.4648 6.00977 24.5566 6.00977C26.3424 6.00977 27.7305 6.59798 28.7207 7.77441C29.7109 8.95085 30.2061 10.6351 30.2061 12.8271V13.8047H20.9004C20.9342 15.1589 21.3278 16.2549 22.0811 17.0928C22.8428 17.9222 23.8076 18.3369 24.9756 18.3369C25.805 18.3369 26.5075 18.1676 27.083 17.8291C27.6585 17.4906 28.1621 17.042 28.5938 16.4834L30.0283 17.6006C28.8773 19.3695 27.1507 20.2539 24.8486 20.2539ZM24.5566 7.93945C23.6087 7.93945 22.8132 8.28646 22.1699 8.98047C21.5267 9.66602 21.1289 10.6309 20.9766 11.875H27.8574V11.6973C27.7897 10.5039 27.4681 9.58138 26.8926 8.92969C26.3171 8.26953 25.5384 7.93945 24.5566 7.93945ZM36.7695 13.6396L35.2969 15.1758V20H32.9482V0.5H35.2969V12.2939L36.5537 10.7832L40.832 6.26367H43.6885L38.3438 12.002L44.3105 20H41.5557L36.7695 13.6396ZM45.4912 13.0049C45.4912 11.6592 45.7536 10.4489 46.2783 9.37402C46.8115 8.29915 47.5479 7.46973 48.4873 6.88574C49.4352 6.30176 50.5143 6.00977 51.7246 6.00977C53.5951 6.00977 55.1058 6.65723 56.2568 7.95215C57.4163 9.24707 57.9961 10.9694 57.9961 13.1191V13.2842C57.9961 14.6214 57.738 15.8232 57.2217 16.8896C56.7139 17.9476 55.9818 18.7728 55.0254 19.3652C54.0775 19.9577 52.9857 20.2539 51.75 20.2539C49.888 20.2539 48.3773 19.6064 47.2178 18.3115C46.0667 17.0166 45.4912 15.3027 45.4912 13.1699V13.0049ZM47.8525 13.2842C47.8525 14.8076 48.2038 16.0306 48.9062 16.9531C49.6172 17.8757 50.5651 18.3369 51.75 18.3369C52.9434 18.3369 53.8913 17.8714 54.5938 16.9404C55.2962 16.001 55.6475 14.6891 55.6475 13.0049C55.6475 11.4984 55.2878 10.2796 54.5684 9.34863C53.8574 8.40918 52.9095 7.93945 51.7246 7.93945C50.5651 7.93945 49.6299 8.40072 48.9189 9.32324C48.208 10.2458 47.8525 11.5661 47.8525 13.2842Z" fill="black"/>
</svg>
